<mxfile host="65bd71144e">
    <diagram id="6mOy798XpB74Yk2sk_v2" name="Page-1">
        <mxGraphModel dx="3352" dy="2516" grid="1" gridSize="10" guides="1" tooltips="1" connect="1" arrows="1" fold="1" page="1" pageScale="1" pageWidth="850" pageHeight="1100" math="0" shadow="0">
            <root>
                <mxCell id="0"/>
                <mxCell id="1" style="locked=1;" parent="0"/>
                <mxCell id="4" value="Domain_1_container" style="locked=1;" parent="0"/>
                <mxCell id="5" value="&lt;font style=&quot;font-size: 30px;&quot;&gt;&lt;b style=&quot;&quot;&gt;domain_1&lt;/b&gt;&lt;/font&gt;" style="rounded=1;whiteSpace=wrap;html=1;verticalAlign=top;" parent="4" vertex="1">
                    <mxGeometry x="-550" y="-40" width="1580" height="880" as="geometry"/>
                </mxCell>
                <mxCell id="6" value="Domain_1_entities" style="locked=1;" parent="0"/>
                <mxCell id="8" value="group_1" style="rounded=1;html=1;fontSize=25;" parent="6" vertex="1">
                    <mxGeometry x="90" y="240" width="160" height="40" as="geometry"/>
                </mxCell>
                <mxCell id="22" style="edgeStyle=elbowEdgeStyle;rounded=1;elbow=vertical;html=1;entryX=0.281;entryY=0.988;entryDx=0;entryDy=0;fontSize=20;fillColor=#a20025;strokeColor=#6F0000;strokeWidth=4;entryPerimeter=0;" parent="6" source="10" target="8" edge="1">
                    <mxGeometry relative="1" as="geometry">
                        <Array as="points">
                            <mxPoint x="10" y="320"/>
                        </Array>
                    </mxGeometry>
                </mxCell>
                <mxCell id="10" value="group_12" style="rounded=1;whiteSpace=wrap;html=1;fontSize=25;" parent="6" vertex="1">
                    <mxGeometry x="-230" y="370" width="160" height="40" as="geometry"/>
                </mxCell>
                <mxCell id="20" style="edgeStyle=elbowEdgeStyle;html=1;entryX=0.5;entryY=1;entryDx=0;entryDy=0;fontSize=20;elbow=vertical;fillColor=#1ba1e2;strokeColor=#006EAF;strokeWidth=4;" parent="6" source="11" target="10" edge="1">
                    <mxGeometry relative="1" as="geometry"/>
                </mxCell>
                <mxCell id="11" value="channel_2" style="rounded=1;html=1;fontSize=25;" parent="6" vertex="1">
                    <mxGeometry x="-390" y="510" width="160" height="40" as="geometry"/>
                </mxCell>
                <mxCell id="21" style="edgeStyle=elbowEdgeStyle;rounded=1;elbow=vertical;html=1;fontSize=20;fillColor=#1ba1e2;strokeColor=#006EAF;strokeWidth=4;" parent="6" source="12" target="10" edge="1">
                    <mxGeometry relative="1" as="geometry"/>
                </mxCell>
                <mxCell id="12" value="channel_3" style="rounded=1;html=1;fontSize=25;" parent="6" vertex="1">
                    <mxGeometry x="-70" y="510" width="160" height="40" as="geometry"/>
                </mxCell>
                <mxCell id="23" style="edgeStyle=elbowEdgeStyle;rounded=1;elbow=vertical;html=1;fontSize=20;fillColor=#1ba1e2;strokeColor=#006EAF;strokeWidth=4;entryX=0.75;entryY=1;entryDx=0;entryDy=0;" parent="6" source="14" target="8" edge="1">
                    <mxGeometry relative="1" as="geometry">
                        <mxPoint x="170" y="280" as="targetPoint"/>
                    </mxGeometry>
                </mxCell>
                <mxCell id="14" value="channel_1" style="rounded=1;html=1;fontSize=25;" parent="6" vertex="1">
                    <mxGeometry x="410" y="360" width="160" height="40" as="geometry"/>
                </mxCell>
                <mxCell id="18" style="edgeStyle=none;html=1;entryX=0.5;entryY=1;entryDx=0;entryDy=0;fontSize=20;fillColor=#6a00ff;strokeColor=#3700CC;strokeWidth=4;" parent="6" source="15" target="14" edge="1">
                    <mxGeometry relative="1" as="geometry">
                        <Array as="points">
                            <mxPoint x="330" y="450"/>
                            <mxPoint x="490" y="450"/>
                        </Array>
                    </mxGeometry>
                </mxCell>
                <mxCell id="15" value="thing_11" style="rounded=1;html=1;fontSize=25;" parent="6" vertex="1">
                    <mxGeometry x="250" y="500" width="160" height="40" as="geometry"/>
                </mxCell>
                <mxCell id="19" style="edgeStyle=none;html=1;entryX=0.5;entryY=1;entryDx=0;entryDy=0;fontSize=20;fillColor=#6a00ff;strokeColor=#3700CC;strokeWidth=4;" parent="6" source="16" target="14" edge="1">
                    <mxGeometry relative="1" as="geometry">
                        <Array as="points">
                            <mxPoint x="650" y="450"/>
                            <mxPoint x="490" y="450"/>
                        </Array>
                    </mxGeometry>
                </mxCell>
                <mxCell id="16" value="thing_12" style="rounded=1;html=1;fontSize=25;strokeWidth=4;" parent="6" vertex="1">
                    <mxGeometry x="570" y="500" width="160" height="40" as="geometry"/>
                </mxCell>
                <mxCell id="29" style="edgeStyle=elbowEdgeStyle;rounded=1;elbow=vertical;html=1;entryX=0.5;entryY=1;entryDx=0;entryDy=0;fontSize=20;strokeWidth=4;fillColor=#6a00ff;strokeColor=#3700CC;" parent="6" source="25" target="11" edge="1">
                    <mxGeometry relative="1" as="geometry"/>
                </mxCell>
                <mxCell id="25" value="thing_21" style="rounded=1;html=1;fontSize=25;" parent="6" vertex="1">
                    <mxGeometry x="-510" y="630" width="160" height="40" as="geometry"/>
                </mxCell>
                <mxCell id="30" style="edgeStyle=elbowEdgeStyle;rounded=1;elbow=vertical;html=1;entryX=0.5;entryY=1;entryDx=0;entryDy=0;fontSize=20;strokeWidth=4;" parent="6" source="26" target="11" edge="1">
                    <mxGeometry relative="1" as="geometry"/>
                </mxCell>
                <mxCell id="26" value="thing_22" style="rounded=1;html=1;fontSize=25;" parent="6" vertex="1">
                    <mxGeometry x="-270" y="630" width="160" height="40" as="geometry"/>
                </mxCell>
                <mxCell id="28" style="edgeStyle=elbowEdgeStyle;rounded=1;elbow=vertical;html=1;fontSize=20;fillColor=#6a00ff;strokeColor=#3700CC;strokeWidth=4;" parent="6" source="27" target="12" edge="1">
                    <mxGeometry relative="1" as="geometry"/>
                </mxCell>
                <mxCell id="27" value="thing_31" style="rounded=1;html=1;fontSize=25;" parent="6" vertex="1">
                    <mxGeometry x="-70" y="630" width="160" height="40" as="geometry"/>
                </mxCell>
                <mxCell id="32" style="edgeStyle=elbowEdgeStyle;rounded=1;elbow=vertical;html=1;entryX=0.5;entryY=1;entryDx=0;entryDy=0;fontSize=20;fillColor=#6a00ff;strokeColor=#3700CC;strokeWidth=4;" parent="6" edge="1">
                    <mxGeometry relative="1" as="geometry">
                        <mxPoint x="-190" y="630" as="sourcePoint"/>
                        <mxPoint x="-310" y="550" as="targetPoint"/>
                    </mxGeometry>
                </mxCell>
                <mxCell id="61" value="group_2" style="rounded=1;html=1;fontSize=25;" parent="6" vertex="1">
                    <mxGeometry x="840" y="240" width="160" height="40" as="geometry"/>
                </mxCell>
                <mxCell id="64" style="edgeStyle=elbowEdgeStyle;rounded=1;elbow=vertical;html=1;strokeColor=#006EAF;fontSize=25;startArrow=none;startFill=0;endArrow=classic;endFill=1;fillColor=#1ba1e2;strokeWidth=4;" parent="6" source="63" target="61" edge="1">
                    <mxGeometry relative="1" as="geometry"/>
                </mxCell>
                <mxCell id="63" value="channel_4" style="rounded=1;html=1;fontSize=25;" parent="6" vertex="1">
                    <mxGeometry x="840" y="340" width="160" height="40" as="geometry"/>
                </mxCell>
                <mxCell id="66" style="edgeStyle=elbowEdgeStyle;rounded=1;elbow=vertical;html=1;entryX=0.5;entryY=1;entryDx=0;entryDy=0;strokeColor=#3700CC;fontSize=25;startArrow=none;startFill=0;endArrow=classic;endFill=1;fillColor=#6a00ff;strokeWidth=4;" parent="6" source="65" target="63" edge="1">
                    <mxGeometry relative="1" as="geometry"/>
                </mxCell>
                <mxCell id="65" value="thing_41" style="rounded=1;html=1;fontSize=25;" parent="6" vertex="1">
                    <mxGeometry x="840" y="440" width="160" height="40" as="geometry"/>
                </mxCell>
                <mxCell id="39" value="Domain_1_Users" style="locked=1;" parent="0"/>
                <mxCell id="76" value="Legends" style="locked=1;" parent="0"/>
                <mxCell id="77" value="Legends" style="text;html=1;strokeColor=none;fillColor=none;align=center;verticalAlign=middle;whiteSpace=wrap;rounded=0;fontSize=25;" parent="76" vertex="1">
                    <mxGeometry x="555" y="620" width="150" height="30" as="geometry"/>
                </mxCell>
                <mxCell id="80" value="" style="endArrow=none;startArrow=classic;html=1;rounded=1;strokeColor=#6F0000;fontSize=25;startFill=1;endFill=0;fillColor=#a20025;strokeWidth=4;" parent="76" edge="1">
                    <mxGeometry width="50" height="50" relative="1" as="geometry">
                        <mxPoint x="570" y="670" as="sourcePoint"/>
                        <mxPoint x="450" y="670" as="targetPoint"/>
                    </mxGeometry>
                </mxCell>
                <mxCell id="81" value="" style="endArrow=none;startArrow=classic;html=1;rounded=1;strokeColor=#006EAF;fontSize=25;startFill=1;endFill=0;fillColor=#1ba1e2;strokeWidth=4;" parent="76" edge="1">
                    <mxGeometry width="50" height="50" relative="1" as="geometry">
                        <mxPoint x="570" y="710" as="sourcePoint"/>
                        <mxPoint x="450" y="710" as="targetPoint"/>
                    </mxGeometry>
                </mxCell>
                <mxCell id="82" value="" style="endArrow=none;startArrow=classic;html=1;rounded=1;strokeColor=#3700CC;fontSize=25;startFill=1;endFill=0;fillColor=#6a00ff;strokeWidth=4;" parent="76" edge="1">
                    <mxGeometry width="50" height="50" relative="1" as="geometry">
                        <mxPoint x="570" y="750" as="sourcePoint"/>
                        <mxPoint x="450" y="750" as="targetPoint"/>
                    </mxGeometry>
                </mxCell>
                <mxCell id="86" value="Group - Group Relation" style="text;html=1;strokeColor=none;fillColor=none;align=left;verticalAlign=middle;whiteSpace=wrap;rounded=0;fontSize=25;" parent="76" vertex="1">
                    <mxGeometry x="580" y="650" width="300" height="30" as="geometry"/>
                </mxCell>
                <mxCell id="87" value="Channel- Group Relation" style="text;html=1;strokeColor=none;fillColor=none;align=left;verticalAlign=middle;whiteSpace=wrap;rounded=0;fontSize=25;" parent="76" vertex="1">
                    <mxGeometry x="580" y="690" width="300" height="30" as="geometry"/>
                </mxCell>
                <mxCell id="88" value="Thing - Channel Relation" style="text;html=1;strokeColor=none;fillColor=none;align=left;verticalAlign=middle;whiteSpace=wrap;rounded=0;fontSize=25;" parent="76" vertex="1">
                    <mxGeometry x="580" y="730" width="300" height="30" as="geometry"/>
                </mxCell>
            </root>
        </mxGraphModel>
    </diagram>
</mxfile>